<?xml version="1.0" encoding="utf-8" standalone="no"?>
<!DOCTYPE svg PUBLIC "-//W3C//DTD SVG 1.1//EN"
  "http://www.w3.org/Graphics/SVG/1.1/DTD/svg11.dtd">
<svg xmlns:xlink="http://www.w3.org/1999/xlink" width="864pt" height="360pt" viewBox="0 0 864 360" xmlns="http://www.w3.org/2000/svg" version="1.1">
 <metadata>
  <rdf:RDF xmlns:dc="http://purl.org/dc/elements/1.1/" xmlns:cc="http://creativecommons.org/ns#" xmlns:rdf="http://www.w3.org/1999/02/22-rdf-syntax-ns#">
   <cc:Work>
    <dc:type rdf:resource="http://purl.org/dc/dcmitype/StillImage"/>
    <dc:date>2022-07-02T01:53:32.948618</dc:date>
    <dc:format>image/svg+xml</dc:format>
    <dc:creator>
     <cc:Agent>
      <dc:title>Matplotlib v3.5.2, https://matplotlib.org/</dc:title>
     </cc:Agent>
    </dc:creator>
   </cc:Work>
  </rdf:RDF>
 </metadata>
 <defs>
  <style type="text/css">*{stroke-linejoin: round; stroke-linecap: butt}</style>
 </defs>
 <g id="figure_1">
  <g id="patch_1">
   <path d="M 0 360 
L 864 360 
L 864 0 
L 0 0 
L 0 360 
z
" style="fill: none"/>
  </g>
  <g id="axes_1">
   <g id="patch_2">
    <path d="M 108 315 
L 412.363636 315 
L 412.363636 43.2 
L 108 43.2 
L 108 315 
z
" style="fill: none"/>
   </g>
   <g id="patch_3">
    <path d="M 121.834711 315 
L 127.539746 315 
L 127.539746 309.650484 
L 121.834711 309.650484 
z
" clip-path="url(#p45c7aee635)" style="fill: #1f77b4"/>
   </g>
   <g id="patch_4">
    <path d="M 128.966005 315 
L 134.67104 315 
L 134.67104 315 
L 128.966005 315 
z
" clip-path="url(#p45c7aee635)" style="fill: #1f77b4"/>
   </g>
   <g id="patch_5">
    <path d="M 136.097299 315 
L 141.802334 315 
L 141.802334 315 
L 136.097299 315 
z
" clip-path="url(#p45c7aee635)" style="fill: #1f77b4"/>
   </g>
   <g id="patch_6">
    <path d="M 143.228593 315 
L 148.933629 315 
L 148.933629 314.702805 
L 143.228593 314.702805 
z
" clip-path="url(#p45c7aee635)" style="fill: #1f77b4"/>
   </g>
   <g id="patch_7">
    <path d="M 150.359888 315 
L 156.064923 315 
L 156.064923 314.702805 
L 150.359888 314.702805 
z
" clip-path="url(#p45c7aee635)" style="fill: #1f77b4"/>
   </g>
   <g id="patch_8">
    <path d="M 157.491182 315 
L 163.196217 315 
L 163.196217 314.405609 
L 157.491182 314.405609 
z
" clip-path="url(#p45c7aee635)" style="fill: #1f77b4"/>
   </g>
   <g id="patch_9">
    <path d="M 164.622476 315 
L 170.327511 315 
L 170.327511 311.433656 
L 164.622476 311.433656 
z
" clip-path="url(#p45c7aee635)" style="fill: #1f77b4"/>
   </g>
   <g id="patch_10">
    <path d="M 171.75377 315 
L 177.458805 315 
L 177.458805 308.461702 
L 171.75377 308.461702 
z
" clip-path="url(#p45c7aee635)" style="fill: #1f77b4"/>
   </g>
   <g id="patch_11">
    <path d="M 178.885064 315 
L 184.5901 315 
L 184.5901 289.738396 
L 178.885064 289.738396 
z
" clip-path="url(#p45c7aee635)" style="fill: #1f77b4"/>
   </g>
   <g id="patch_12">
    <path d="M 186.016359 315 
L 191.721394 315 
L 191.721394 276.06741 
L 186.016359 276.06741 
z
" clip-path="url(#p45c7aee635)" style="fill: #1f77b4"/>
   </g>
   <g id="patch_13">
    <path d="M 193.147653 315 
L 198.852688 315 
L 198.852688 247.536657 
L 193.147653 247.536657 
z
" clip-path="url(#p45c7aee635)" style="fill: #1f77b4"/>
   </g>
   <g id="patch_14">
    <path d="M 200.278947 315 
L 205.983982 315 
L 205.983982 218.708709 
L 200.278947 218.708709 
z
" clip-path="url(#p45c7aee635)" style="fill: #1f77b4"/>
   </g>
   <g id="patch_15">
    <path d="M 207.410241 315 
L 213.115276 315 
L 213.115276 166.105134 
L 207.410241 166.105134 
z
" clip-path="url(#p45c7aee635)" style="fill: #1f77b4"/>
   </g>
   <g id="patch_16">
    <path d="M 214.541535 315 
L 220.246571 315 
L 220.246571 113.204363 
L 214.541535 113.204363 
z
" clip-path="url(#p45c7aee635)" style="fill: #1f77b4"/>
   </g>
   <g id="patch_17">
    <path d="M 221.67283 315 
L 227.377865 315 
L 227.377865 66.841889 
L 221.67283 66.841889 
z
" clip-path="url(#p45c7aee635)" style="fill: #1f77b4"/>
   </g>
   <g id="patch_18">
    <path d="M 228.804124 315 
L 234.509159 315 
L 234.509159 56.142857 
L 228.804124 56.142857 
z
" clip-path="url(#p45c7aee635)" style="fill: #1f77b4"/>
   </g>
   <g id="patch_19">
    <path d="M 235.935418 315 
L 241.640453 315 
L 241.640453 56.142857 
L 235.935418 56.142857 
z
" clip-path="url(#p45c7aee635)" style="fill: #1f77b4"/>
   </g>
   <g id="patch_20">
    <path d="M 243.066712 315 
L 248.771747 315 
L 248.771747 58.52042 
L 243.066712 58.52042 
z
" clip-path="url(#p45c7aee635)" style="fill: #1f77b4"/>
   </g>
   <g id="patch_21">
    <path d="M 250.198006 315 
L 255.903042 315 
L 255.903042 76.054945 
L 250.198006 76.054945 
z
" clip-path="url(#p45c7aee635)" style="fill: #1f77b4"/>
   </g>
   <g id="patch_22">
    <path d="M 257.329301 315 
L 263.034336 315 
L 263.034336 105.774479 
L 257.329301 105.774479 
z
" clip-path="url(#p45c7aee635)" style="fill: #1f77b4"/>
   </g>
   <g id="patch_23">
    <path d="M 264.460595 315 
L 270.16563 315 
L 270.16563 136.385599 
L 264.460595 136.385599 
z
" clip-path="url(#p45c7aee635)" style="fill: #1f77b4"/>
   </g>
   <g id="patch_24">
    <path d="M 271.591889 315 
L 277.296924 315 
L 277.296924 160.458422 
L 271.591889 160.458422 
z
" clip-path="url(#p45c7aee635)" style="fill: #1f77b4"/>
   </g>
   <g id="patch_25">
    <path d="M 278.723183 315 
L 284.428218 315 
L 284.428218 184.23405 
L 278.723183 184.23405 
z
" clip-path="url(#p45c7aee635)" style="fill: #1f77b4"/>
   </g>
   <g id="patch_26">
    <path d="M 285.854477 315 
L 291.559513 315 
L 291.559513 213.953584 
L 285.854477 213.953584 
z
" clip-path="url(#p45c7aee635)" style="fill: #1f77b4"/>
   </g>
   <g id="patch_27">
    <path d="M 292.985771 315 
L 298.690807 315 
L 298.690807 240.99836 
L 292.985771 240.99836 
z
" clip-path="url(#p45c7aee635)" style="fill: #1f77b4"/>
   </g>
   <g id="patch_28">
    <path d="M 300.117066 315 
L 305.822101 315 
L 305.822101 253.480564 
L 300.117066 253.480564 
z
" clip-path="url(#p45c7aee635)" style="fill: #1f77b4"/>
   </g>
   <g id="patch_29">
    <path d="M 307.24836 315 
L 312.953395 315 
L 312.953395 262.69362 
L 307.24836 262.69362 
z
" clip-path="url(#p45c7aee635)" style="fill: #1f77b4"/>
   </g>
   <g id="patch_30">
    <path d="M 314.379654 315 
L 320.084689 315 
L 320.084689 277.850582 
L 314.379654 277.850582 
z
" clip-path="url(#p45c7aee635)" style="fill: #1f77b4"/>
   </g>
   <g id="patch_31">
    <path d="M 321.510948 315 
L 327.215984 315 
L 327.215984 284.38888 
L 321.510948 284.38888 
z
" clip-path="url(#p45c7aee635)" style="fill: #1f77b4"/>
   </g>
   <g id="patch_32">
    <path d="M 328.642242 315 
L 334.347278 315 
L 334.347278 290.332787 
L 328.642242 290.332787 
z
" clip-path="url(#p45c7aee635)" style="fill: #1f77b4"/>
   </g>
   <g id="patch_33">
    <path d="M 335.773537 315 
L 341.478572 315 
L 341.478572 296.573889 
L 335.773537 296.573889 
z
" clip-path="url(#p45c7aee635)" style="fill: #1f77b4"/>
   </g>
   <g id="patch_34">
    <path d="M 342.904831 315 
L 348.609866 315 
L 348.609866 301.031819 
L 342.904831 301.031819 
z
" clip-path="url(#p45c7aee635)" style="fill: #1f77b4"/>
   </g>
   <g id="patch_35">
    <path d="M 350.036125 315 
L 355.74116 315 
L 355.74116 306.975726 
L 350.036125 306.975726 
z
" clip-path="url(#p45c7aee635)" style="fill: #1f77b4"/>
   </g>
   <g id="patch_36">
    <path d="M 357.167419 315 
L 362.872455 315 
L 362.872455 308.461702 
L 357.167419 308.461702 
z
" clip-path="url(#p45c7aee635)" style="fill: #1f77b4"/>
   </g>
   <g id="patch_37">
    <path d="M 364.298713 315 
L 370.003749 315 
L 370.003749 310.244875 
L 364.298713 310.244875 
z
" clip-path="url(#p45c7aee635)" style="fill: #1f77b4"/>
   </g>
   <g id="patch_38">
    <path d="M 371.430008 315 
L 377.135043 315 
L 377.135043 310.244875 
L 371.430008 310.244875 
z
" clip-path="url(#p45c7aee635)" style="fill: #1f77b4"/>
   </g>
   <g id="patch_39">
    <path d="M 378.561302 315 
L 384.266337 315 
L 384.266337 313.216828 
L 378.561302 313.216828 
z
" clip-path="url(#p45c7aee635)" style="fill: #1f77b4"/>
   </g>
   <g id="patch_40">
    <path d="M 385.692596 315 
L 391.397631 315 
L 391.397631 312.919633 
L 385.692596 312.919633 
z
" clip-path="url(#p45c7aee635)" style="fill: #1f77b4"/>
   </g>
   <g id="patch_41">
    <path d="M 392.82389 315 
L 398.528926 315 
L 398.528926 314.405609 
L 392.82389 314.405609 
z
" clip-path="url(#p45c7aee635)" style="fill: #1f77b4"/>
   </g>
   <g id="matplotlib.axis_1">
    <g id="xtick_1">
     <g id="line2d_1">
      <defs>
       <path id="m072fc4b67d" d="M 0 0 
L 0 3.5 
" style="stroke: #000000; stroke-width: 0.8"/>
      </defs>
      <g>
       <use xlink:href="#m072fc4b67d" x="124.687228" y="315" style="stroke: #000000; stroke-width: 0.8"/>
      </g>
     </g>
     <g id="text_1">
      <!-- $\mathdefault{0}$ -->
      <g transform="translate(122.196561 328.918498)scale(0.1 -0.1)">
       <defs>
        <path id="CMR17-30" d="M 2688 2038 
C 2688 2430 2682 3099 2413 3613 
C 2176 4063 1798 4224 1466 4224 
C 1158 4224 768 4082 525 3620 
C 269 3137 243 2539 243 2038 
C 243 1671 250 1112 448 623 
C 723 -39 1216 -128 1466 -128 
C 1760 -128 2208 -7 2470 604 
C 2662 1048 2688 1568 2688 2038 
z
M 1466 -26 
C 1056 -26 813 328 723 816 
C 653 1196 653 1749 653 2109 
C 653 2604 653 3015 736 3407 
C 858 3954 1216 4121 1466 4121 
C 1728 4121 2067 3947 2189 3420 
C 2272 3054 2278 2623 2278 2109 
C 2278 1691 2278 1176 2202 797 
C 2067 96 1690 -26 1466 -26 
z
" transform="scale(0.015625)"/>
       </defs>
       <use xlink:href="#CMR17-30" transform="scale(0.996264)"/>
      </g>
     </g>
    </g>
    <g id="xtick_2">
     <g id="line2d_2">
      <g>
       <use xlink:href="#m072fc4b67d" x="160.343699" y="315" style="stroke: #000000; stroke-width: 0.8"/>
      </g>
     </g>
     <g id="text_2">
      <!-- $\mathdefault{5}$ -->
      <g transform="translate(157.853032 328.918498)scale(0.1 -0.1)">
       <defs>
        <path id="CMR17-35" d="M 730 3750 
C 794 3724 1056 3641 1325 3641 
C 1920 3641 2246 3961 2432 4140 
C 2432 4191 2432 4224 2394 4224 
C 2387 4224 2374 4224 2323 4198 
C 2099 4102 1837 4032 1517 4032 
C 1325 4032 1037 4055 723 4191 
C 653 4224 640 4224 634 4224 
C 602 4224 595 4217 595 4090 
L 595 2231 
C 595 2113 595 2080 659 2080 
C 691 2080 704 2093 736 2139 
C 941 2435 1222 2560 1542 2560 
C 1766 2560 2246 2415 2246 1293 
C 2246 1087 2246 716 2054 422 
C 1894 159 1645 25 1370 25 
C 947 25 518 319 403 812 
C 429 806 480 793 506 793 
C 589 793 749 838 749 1036 
C 749 1209 627 1280 506 1280 
C 358 1280 262 1190 262 1011 
C 262 454 704 -128 1382 -128 
C 2042 -128 2669 441 2669 1267 
C 2669 2054 2170 2662 1549 2662 
C 1222 2662 947 2540 730 2304 
L 730 3750 
z
" transform="scale(0.015625)"/>
       </defs>
       <use xlink:href="#CMR17-35" transform="scale(0.996264)"/>
      </g>
     </g>
    </g>
    <g id="xtick_3">
     <g id="line2d_3">
      <g>
       <use xlink:href="#m072fc4b67d" x="196.00017" y="315" style="stroke: #000000; stroke-width: 0.8"/>
      </g>
     </g>
     <g id="text_3">
      <!-- $\mathdefault{10}$ -->
      <g transform="translate(191.018835 328.918498)scale(0.1 -0.1)">
       <defs>
        <path id="CMR17-31" d="M 1702 4083 
C 1702 4217 1696 4224 1606 4224 
C 1357 3927 979 3833 621 3820 
C 602 3820 570 3820 563 3808 
C 557 3795 557 3782 557 3648 
C 755 3648 1088 3686 1344 3839 
L 1344 467 
C 1344 243 1331 166 781 166 
L 589 166 
L 589 0 
C 896 6 1216 12 1523 12 
C 1830 12 2150 6 2458 0 
L 2458 166 
L 2266 166 
C 1715 166 1702 236 1702 467 
L 1702 4083 
z
" transform="scale(0.015625)"/>
       </defs>
       <use xlink:href="#CMR17-31" transform="scale(0.996264)"/>
       <use xlink:href="#CMR17-30" transform="translate(45.690477 0)scale(0.996264)"/>
      </g>
     </g>
    </g>
    <g id="xtick_4">
     <g id="line2d_4">
      <g>
       <use xlink:href="#m072fc4b67d" x="231.656641" y="315" style="stroke: #000000; stroke-width: 0.8"/>
      </g>
     </g>
     <g id="text_4">
      <!-- $\mathdefault{15}$ -->
      <g transform="translate(226.675306 328.918498)scale(0.1 -0.1)">
       <use xlink:href="#CMR17-31" transform="scale(0.996264)"/>
       <use xlink:href="#CMR17-35" transform="translate(45.690477 0)scale(0.996264)"/>
      </g>
     </g>
    </g>
    <g id="xtick_5">
     <g id="line2d_5">
      <g>
       <use xlink:href="#m072fc4b67d" x="267.313112" y="315" style="stroke: #000000; stroke-width: 0.8"/>
      </g>
     </g>
     <g id="text_5">
      <!-- $\mathdefault{20}$ -->
      <g transform="translate(262.331777 328.918498)scale(0.1 -0.1)">
       <defs>
        <path id="CMR17-32" d="M 2669 990 
L 2554 990 
C 2490 537 2438 460 2413 422 
C 2381 371 1920 371 1830 371 
L 602 371 
C 832 620 1280 1073 1824 1596 
C 2214 1966 2669 2400 2669 3033 
C 2669 3788 2067 4224 1395 4224 
C 691 4224 262 3603 262 3027 
C 262 2777 448 2745 525 2745 
C 589 2745 781 2783 781 3007 
C 781 3206 614 3264 525 3264 
C 486 3264 448 3257 422 3244 
C 544 3788 915 4057 1306 4057 
C 1862 4057 2227 3616 2227 3033 
C 2227 2477 1901 1998 1536 1583 
L 262 147 
L 262 0 
L 2515 0 
L 2669 990 
z
" transform="scale(0.015625)"/>
       </defs>
       <use xlink:href="#CMR17-32" transform="scale(0.996264)"/>
       <use xlink:href="#CMR17-30" transform="translate(45.690477 0)scale(0.996264)"/>
      </g>
     </g>
    </g>
    <g id="xtick_6">
     <g id="line2d_6">
      <g>
       <use xlink:href="#m072fc4b67d" x="302.969583" y="315" style="stroke: #000000; stroke-width: 0.8"/>
      </g>
     </g>
     <g id="text_6">
      <!-- $\mathdefault{25}$ -->
      <g transform="translate(297.988248 328.918498)scale(0.1 -0.1)">
       <use xlink:href="#CMR17-32" transform="scale(0.996264)"/>
       <use xlink:href="#CMR17-35" transform="translate(45.690477 0)scale(0.996264)"/>
      </g>
     </g>
    </g>
    <g id="xtick_7">
     <g id="line2d_7">
      <g>
       <use xlink:href="#m072fc4b67d" x="338.626054" y="315" style="stroke: #000000; stroke-width: 0.8"/>
      </g>
     </g>
     <g id="text_7">
      <!-- $\mathdefault{30}$ -->
      <g transform="translate(333.644719 328.918498)scale(0.1 -0.1)">
       <defs>
        <path id="CMR17-33" d="M 1414 2176 
C 1984 2176 2234 1673 2234 1094 
C 2234 322 1824 25 1453 25 
C 1114 25 563 193 390 691 
C 422 678 454 678 486 678 
C 640 678 755 780 755 947 
C 755 1132 614 1216 486 1216 
C 378 1216 211 1164 211 927 
C 211 335 787 -128 1466 -128 
C 2176 -128 2720 432 2720 1087 
C 2720 1718 2208 2176 1600 2246 
C 2086 2347 2554 2776 2554 3353 
C 2554 3856 2048 4224 1472 4224 
C 890 4224 378 3862 378 3347 
C 378 3123 544 3084 627 3084 
C 762 3084 877 3167 877 3334 
C 877 3500 762 3584 627 3584 
C 602 3584 570 3584 544 3571 
C 730 3999 1235 4076 1459 4076 
C 1683 4076 2106 3966 2106 3347 
C 2106 3167 2080 2851 1862 2574 
C 1670 2329 1453 2316 1242 2297 
C 1210 2297 1062 2284 1037 2284 
C 992 2278 966 2272 966 2227 
C 966 2182 973 2176 1101 2176 
L 1414 2176 
z
" transform="scale(0.015625)"/>
       </defs>
       <use xlink:href="#CMR17-33" transform="scale(0.996264)"/>
       <use xlink:href="#CMR17-30" transform="translate(45.690477 0)scale(0.996264)"/>
      </g>
     </g>
    </g>
    <g id="xtick_8">
     <g id="line2d_8">
      <g>
       <use xlink:href="#m072fc4b67d" x="374.282525" y="315" style="stroke: #000000; stroke-width: 0.8"/>
      </g>
     </g>
     <g id="text_8">
      <!-- $\mathdefault{35}$ -->
      <g transform="translate(369.30119 328.918498)scale(0.1 -0.1)">
       <use xlink:href="#CMR17-33" transform="scale(0.996264)"/>
       <use xlink:href="#CMR17-35" transform="translate(45.690477 0)scale(0.996264)"/>
      </g>
     </g>
    </g>
    <g id="xtick_9">
     <g id="line2d_9">
      <g>
       <use xlink:href="#m072fc4b67d" x="409.938996" y="315" style="stroke: #000000; stroke-width: 0.8"/>
      </g>
     </g>
     <g id="text_9">
      <!-- $\mathdefault{40}$ -->
      <g transform="translate(404.957661 328.918498)scale(0.1 -0.1)">
       <defs>
        <path id="CMR17-34" d="M 2150 4147 
C 2150 4281 2144 4288 2029 4288 
L 128 1254 
L 128 1088 
L 1779 1088 
L 1779 460 
C 1779 230 1766 166 1318 166 
L 1197 166 
L 1197 0 
C 1402 12 1747 12 1965 12 
C 2182 12 2528 12 2733 0 
L 2733 166 
L 2611 166 
C 2163 166 2150 230 2150 460 
L 2150 1088 
L 2803 1088 
L 2803 1254 
L 2150 1254 
L 2150 4147 
z
M 1798 3723 
L 1798 1254 
L 256 1254 
L 1798 3723 
z
" transform="scale(0.015625)"/>
       </defs>
       <use xlink:href="#CMR17-34" transform="scale(0.996264)"/>
       <use xlink:href="#CMR17-30" transform="translate(45.690477 0)scale(0.996264)"/>
      </g>
     </g>
    </g>
   </g>
   <g id="matplotlib.axis_2">
    <g id="ytick_1">
     <g id="line2d_10">
      <defs>
       <path id="mfc759e1ce1" d="M 0 0 
L -3.5 0 
" style="stroke: #000000; stroke-width: 0.8"/>
      </defs>
      <g>
       <use xlink:href="#mfc759e1ce1" x="108" y="315" style="stroke: #000000; stroke-width: 0.8"/>
      </g>
     </g>
     <g id="text_10">
      <!-- $\mathdefault{0}$ -->
      <g transform="translate(96.018665 318.459249)scale(0.1 -0.1)">
       <use xlink:href="#CMR17-30" transform="scale(0.996264)"/>
      </g>
     </g>
    </g>
    <g id="ytick_2">
     <g id="line2d_11">
      <g>
       <use xlink:href="#mfc759e1ce1" x="108" y="255.560932" style="stroke: #000000; stroke-width: 0.8"/>
      </g>
     </g>
     <g id="text_11">
      <!-- $\mathdefault{200}$ -->
      <g transform="translate(86.055994 259.020181)scale(0.1 -0.1)">
       <use xlink:href="#CMR17-32" transform="scale(0.996264)"/>
       <use xlink:href="#CMR17-30" transform="translate(45.690477 0)scale(0.996264)"/>
       <use xlink:href="#CMR17-30" transform="translate(91.380954 0)scale(0.996264)"/>
      </g>
     </g>
    </g>
    <g id="ytick_3">
     <g id="line2d_12">
      <g>
       <use xlink:href="#mfc759e1ce1" x="108" y="196.121863" style="stroke: #000000; stroke-width: 0.8"/>
      </g>
     </g>
     <g id="text_12">
      <!-- $\mathdefault{400}$ -->
      <g transform="translate(86.055994 199.581112)scale(0.1 -0.1)">
       <use xlink:href="#CMR17-34" transform="scale(0.996264)"/>
       <use xlink:href="#CMR17-30" transform="translate(45.690477 0)scale(0.996264)"/>
       <use xlink:href="#CMR17-30" transform="translate(91.380954 0)scale(0.996264)"/>
      </g>
     </g>
    </g>
    <g id="ytick_4">
     <g id="line2d_13">
      <g>
       <use xlink:href="#mfc759e1ce1" x="108" y="136.682795" style="stroke: #000000; stroke-width: 0.8"/>
      </g>
     </g>
     <g id="text_13">
      <!-- $\mathdefault{600}$ -->
      <g transform="translate(86.055994 140.142044)scale(0.1 -0.1)">
       <defs>
        <path id="CMR17-36" d="M 678 2198 
C 678 3712 1395 4076 1811 4076 
C 1946 4076 2272 4049 2400 3782 
C 2298 3782 2106 3782 2106 3558 
C 2106 3385 2246 3328 2336 3328 
C 2394 3328 2566 3353 2566 3571 
C 2566 3987 2246 4224 1805 4224 
C 1043 4224 243 3411 243 2011 
C 243 257 966 -128 1478 -128 
C 2099 -128 2688 431 2688 1295 
C 2688 2101 2170 2688 1517 2688 
C 1126 2688 838 2430 678 1979 
L 678 2198 
z
M 1478 25 
C 691 25 691 1212 691 1450 
C 691 1914 909 2585 1504 2585 
C 1613 2585 1926 2585 2138 2140 
C 2253 1889 2253 1624 2253 1302 
C 2253 954 2253 696 2118 438 
C 1978 173 1773 25 1478 25 
z
" transform="scale(0.015625)"/>
       </defs>
       <use xlink:href="#CMR17-36" transform="scale(0.996264)"/>
       <use xlink:href="#CMR17-30" transform="translate(45.690477 0)scale(0.996264)"/>
       <use xlink:href="#CMR17-30" transform="translate(91.380954 0)scale(0.996264)"/>
      </g>
     </g>
    </g>
    <g id="ytick_5">
     <g id="line2d_14">
      <g>
       <use xlink:href="#mfc759e1ce1" x="108" y="77.243726" style="stroke: #000000; stroke-width: 0.8"/>
      </g>
     </g>
     <g id="text_14">
      <!-- $\mathdefault{800}$ -->
      <g transform="translate(86.055994 80.702976)scale(0.1 -0.1)">
       <defs>
        <path id="CMR17-38" d="M 1741 2289 
C 2144 2494 2554 2803 2554 3298 
C 2554 3884 1990 4224 1472 4224 
C 890 4224 378 3800 378 3215 
C 378 3054 416 2777 666 2533 
C 730 2469 998 2276 1171 2154 
C 883 2006 211 1652 211 945 
C 211 282 838 -128 1459 -128 
C 2144 -128 2720 366 2720 1022 
C 2720 1607 2330 1877 2074 2051 
L 1741 2289 
z
M 902 2855 
C 851 2887 595 3086 595 3388 
C 595 3781 998 4076 1459 4076 
C 1965 4076 2336 3716 2336 3298 
C 2336 2700 1670 2359 1638 2359 
C 1632 2359 1626 2359 1574 2398 
L 902 2855 
z
M 2080 1536 
C 2176 1466 2483 1253 2483 861 
C 2483 385 2010 25 1472 25 
C 890 25 448 443 448 951 
C 448 1459 838 1884 1280 2083 
L 2080 1536 
z
" transform="scale(0.015625)"/>
       </defs>
       <use xlink:href="#CMR17-38" transform="scale(0.996264)"/>
       <use xlink:href="#CMR17-30" transform="translate(45.690477 0)scale(0.996264)"/>
       <use xlink:href="#CMR17-30" transform="translate(91.380954 0)scale(0.996264)"/>
      </g>
     </g>
    </g>
   </g>
   <g id="patch_42">
    <path d="M 108 315 
L 108 43.2 
" style="fill: none; stroke: #000000; stroke-width: 0.8; stroke-linejoin: miter; stroke-linecap: square"/>
   </g>
   <g id="patch_43">
    <path d="M 412.363636 315 
L 412.363636 43.2 
" style="fill: none; stroke: #000000; stroke-width: 0.8; stroke-linejoin: miter; stroke-linecap: square"/>
   </g>
   <g id="patch_44">
    <path d="M 108 315 
L 412.363636 315 
" style="fill: none; stroke: #000000; stroke-width: 0.8; stroke-linejoin: miter; stroke-linecap: square"/>
   </g>
   <g id="patch_45">
    <path d="M 108 43.2 
L 412.363636 43.2 
" style="fill: none; stroke: #000000; stroke-width: 0.8; stroke-linejoin: miter; stroke-linecap: square"/>
   </g>
   <g id="text_15">
    <!-- Random noise: Iterations until convergence (10000 samples) -->
    <g transform="translate(106.007409 24.248592)scale(0.12 -0.12)">
     <defs>
      <path id="CMR17-52" d="M 2509 2156 
C 3117 2278 3629 2689 3629 3203 
C 3629 3806 2950 4352 2054 4352 
L 333 4352 
L 333 4185 
C 774 4185 845 4185 845 3896 
L 845 428 
C 845 140 774 140 333 140 
L 333 -26 
C 518 -13 851 -13 1050 -13 
C 1248 -13 1581 -13 1766 -26 
L 1766 140 
C 1325 140 1254 140 1254 428 
L 1254 2112 
L 2003 2112 
C 2368 2112 2573 1964 2662 1881 
C 2918 1632 2918 1459 2918 1024 
C 2918 595 2918 377 3110 160 
C 3354 -103 3680 -128 3821 -128 
C 4294 -128 4365 403 4365 512 
C 4365 550 4365 595 4307 595 
C 4256 595 4250 556 4250 531 
C 4218 115 4032 -26 3834 -26 
C 3482 -26 3443 377 3405 768 
C 3386 902 3373 998 3360 1139 
C 3322 1459 3270 1926 2509 2156 
z
M 1984 2214 
L 1254 2214 
L 1254 3935 
C 1254 4153 1267 4185 1523 4185 
L 1990 4185 
C 2522 4185 3142 3999 3142 3203 
C 3142 2374 2464 2214 1984 2214 
z
" transform="scale(0.015625)"/>
      <path id="CMR17-61" d="M 2304 1656 
C 2304 2048 2304 2275 2035 2534 
C 1798 2751 1523 2816 1306 2816 
C 800 2816 435 2408 435 1977 
C 435 1740 627 1728 666 1728 
C 749 1728 896 1779 896 1958 
C 896 2118 774 2188 666 2188 
C 640 2188 608 2182 589 2176 
C 723 2594 1069 2713 1293 2713 
C 1613 2713 1965 2421 1965 1875 
L 1965 1632 
C 1587 1619 1133 1568 774 1373 
C 371 1147 256 822 256 576 
C 256 77 832 -64 1171 -64 
C 1523 -64 1850 135 1990 505 
C 2003 219 2182 -39 2464 -39 
C 2598 -39 2938 51 2938 563 
L 2938 926 
L 2822 926 
L 2822 557 
C 2822 161 2650 109 2566 109 
C 2304 109 2304 446 2304 732 
L 2304 1656 
z
M 1965 887 
C 1965 323 1568 38 1216 38 
C 896 38 646 278 646 576 
C 646 771 730 1114 1101 1322 
C 1408 1497 1760 1523 1965 1536 
L 1965 887 
z
" transform="scale(0.015625)"/>
      <path id="CMR17-6e" d="M 2656 1954 
C 2656 2282 2592 2816 1837 2816 
C 1331 2816 1069 2424 973 2166 
L 966 2166 
L 966 2816 
L 211 2745 
L 211 2578 
C 589 2578 646 2540 646 2231 
L 646 443 
C 646 198 621 166 211 166 
L 211 0 
C 365 12 646 12 813 12 
C 979 12 1267 12 1421 0 
L 1421 166 
C 1011 166 986 192 986 443 
L 986 1678 
C 986 2269 1344 2713 1792 2713 
C 2266 2713 2317 2289 2317 1980 
L 2317 443 
C 2317 198 2291 166 1882 166 
L 1882 0 
C 2035 12 2317 12 2483 12 
C 2650 12 2938 12 3091 0 
L 3091 166 
C 2682 166 2656 192 2656 443 
L 2656 1954 
z
" transform="scale(0.015625)"/>
      <path id="CMR17-64" d="M 1869 4345 
L 1869 4179 
C 2246 4179 2304 4141 2304 3843 
L 2304 2371 
C 2278 2403 2016 2816 1498 2816 
C 845 2816 211 2228 211 1376 
C 211 529 806 -64 1434 -64 
C 1978 -64 2259 361 2291 406 
L 2291 -64 
L 3066 -13 
L 3066 154 
C 2688 154 2630 193 2630 503 
L 2630 4416 
L 1869 4345 
z
M 2291 762 
C 2291 568 2176 393 2029 264 
C 1811 70 1594 38 1472 38 
C 1286 38 621 135 621 1369 
C 621 2636 1363 2713 1530 2713 
C 1824 2713 2061 2545 2208 2313 
C 2291 2177 2291 2157 2291 2041 
L 2291 762 
z
" transform="scale(0.015625)"/>
      <path id="CMR17-6f" d="M 2758 1356 
C 2758 2176 2163 2816 1466 2816 
C 768 2816 173 2176 173 1356 
C 173 550 768 -64 1466 -64 
C 2163 -64 2758 550 2758 1356 
z
M 1466 51 
C 1165 51 909 230 762 480 
C 602 768 582 1126 582 1408 
C 582 1676 595 2009 762 2297 
C 890 2508 1139 2713 1466 2713 
C 1754 2713 1997 2553 2150 2329 
C 2349 2028 2349 1606 2349 1408 
C 2349 1158 2336 774 2163 467 
C 1984 172 1709 51 1466 51 
z
" transform="scale(0.015625)"/>
      <path id="CMR17-6d" d="M 4326 1954 
C 4326 2276 4269 2816 3507 2816 
C 3072 2816 2771 2520 2656 2173 
L 2650 2173 
C 2573 2700 2195 2816 1837 2816 
C 1331 2816 1069 2424 973 2166 
L 966 2166 
L 966 2816 
L 211 2745 
L 211 2578 
C 589 2578 646 2540 646 2231 
L 646 443 
C 646 198 621 166 211 166 
L 211 0 
C 365 12 646 12 813 12 
C 979 12 1267 12 1421 0 
L 1421 166 
C 1011 166 986 192 986 443 
L 986 1678 
C 986 2269 1344 2713 1792 2713 
C 2266 2713 2317 2289 2317 1980 
L 2317 443 
C 2317 198 2291 166 1882 166 
L 1882 0 
C 2035 12 2317 12 2483 12 
C 2650 12 2938 12 3091 0 
L 3091 166 
C 2682 166 2656 192 2656 443 
L 2656 1678 
C 2656 2269 3014 2713 3462 2713 
C 3936 2713 3987 2289 3987 1980 
L 3987 443 
C 3987 198 3962 166 3552 166 
L 3552 0 
C 3706 12 3987 12 4154 12 
C 4320 12 4608 12 4762 0 
L 4762 166 
C 4352 166 4326 192 4326 443 
L 4326 1954 
z
" transform="scale(0.015625)"/>
      <path id="CMR17-69" d="M 992 3961 
C 992 4102 877 4224 730 4224 
C 589 4224 467 4108 467 3961 
C 467 3820 582 3699 730 3699 
C 870 3699 992 3814 992 3961 
z
M 243 2745 
L 243 2579 
C 602 2579 653 2540 653 2231 
L 653 443 
C 653 198 627 166 218 166 
L 218 0 
C 371 12 646 12 806 12 
C 960 12 1222 12 1370 0 
L 1370 166 
C 992 166 979 205 979 436 
L 979 2816 
L 243 2745 
z
" transform="scale(0.015625)"/>
      <path id="CMR17-73" d="M 1978 2688 
C 1978 2803 1971 2809 1933 2809 
C 1907 2809 1901 2803 1824 2707 
C 1805 2681 1747 2617 1728 2592 
C 1523 2809 1235 2816 1126 2816 
C 416 2816 160 2444 160 2073 
C 160 1497 813 1363 998 1324 
C 1402 1241 1542 1216 1677 1100 
C 1760 1024 1901 883 1901 652 
C 1901 384 1747 38 1158 38 
C 602 38 403 460 288 1024 
C 269 1113 269 1120 218 1120 
C 166 1120 160 1113 160 985 
L 160 64 
C 160 -52 166 -58 205 -58 
C 237 -58 243 -52 275 0 
C 314 57 410 211 448 275 
C 576 102 800 -64 1158 -64 
C 1792 -64 2131 281 2131 780 
C 2131 1107 1958 1280 1875 1356 
C 1683 1555 1459 1600 1190 1651 
C 838 1728 390 1817 390 2208 
C 390 2374 480 2726 1126 2726 
C 1811 2726 1850 2086 1862 1881 
C 1869 1849 1901 1843 1920 1843 
C 1978 1843 1978 1862 1978 1971 
L 1978 2688 
z
" transform="scale(0.015625)"/>
      <path id="CMR17-65" d="M 2438 1503 
C 2464 1529 2464 1542 2464 1606 
C 2464 2251 2118 2816 1389 2816 
C 710 2816 173 2175 173 1394 
C 173 554 781 -64 1459 -64 
C 2176 -64 2458 619 2458 755 
C 2458 800 2419 800 2406 800 
C 2362 800 2355 787 2330 709 
C 2189 270 1837 51 1504 51 
C 1229 51 954 206 781 490 
C 582 819 582 1200 582 1503 
L 2438 1503 
z
M 589 1600 
C 634 2511 1126 2713 1382 2713 
C 1818 2713 2112 2308 2118 1600 
L 589 1600 
z
" transform="scale(0.015625)"/>
      <path id="CMR17-3a" d="M 1062 2489 
C 1062 2649 934 2752 800 2752 
C 672 2752 538 2649 538 2489 
C 538 2329 666 2227 800 2227 
C 928 2227 1062 2329 1062 2489 
z
M 1062 262 
C 1062 422 934 524 800 524 
C 672 524 538 422 538 262 
C 538 102 666 0 800 0 
C 928 0 1062 102 1062 262 
z
" transform="scale(0.015625)"/>
      <path id="CMR17-49" d="M 1261 3898 
C 1261 4185 1338 4185 1798 4185 
L 1798 4352 
C 1594 4339 1267 4339 1050 4339 
C 832 4339 506 4339 301 4352 
L 301 4185 
C 762 4185 838 4185 838 3898 
L 838 453 
C 838 166 762 166 301 166 
L 301 0 
C 506 12 832 12 1050 12 
C 1267 12 1594 12 1798 0 
L 1798 166 
C 1338 166 1261 166 1261 453 
L 1261 3898 
z
" transform="scale(0.015625)"/>
      <path id="CMR17-74" d="M 966 2585 
L 1862 2585 
L 1862 2752 
L 966 2752 
L 966 3968 
L 851 3968 
C 838 3292 614 2700 70 2687 
L 70 2585 
L 627 2585 
L 627 778 
C 627 655 627 -64 1370 -64 
C 1747 -64 1965 308 1965 784 
L 1965 1151 
L 1850 1151 
L 1850 790 
C 1850 347 1677 51 1408 51 
C 1222 51 966 179 966 765 
L 966 2585 
z
" transform="scale(0.015625)"/>
      <path id="CMR17-72" d="M 960 1517 
C 960 2134 1222 2713 1702 2713 
C 1747 2713 1792 2707 1837 2687 
C 1837 2687 1696 2642 1696 2475 
C 1696 2321 1818 2257 1914 2257 
C 1990 2257 2131 2302 2131 2482 
C 2131 2687 1926 2816 1709 2816 
C 1222 2816 1011 2340 947 2115 
L 941 2115 
L 941 2816 
L 198 2745 
L 198 2578 
C 576 2578 634 2540 634 2231 
L 634 443 
C 634 198 608 166 198 166 
L 198 0 
C 352 12 646 12 813 12 
C 998 12 1325 12 1498 0 
L 1498 166 
C 1037 166 960 166 960 455 
L 960 1517 
z
" transform="scale(0.015625)"/>
      <path id="CMR17-75" d="M 1882 2745 
L 1882 2579 
C 2259 2579 2317 2540 2317 2229 
L 2317 1053 
C 2317 510 2029 38 1555 38 
C 1030 38 986 355 986 691 
L 986 2816 
L 211 2745 
L 211 2579 
C 467 2579 640 2579 646 2320 
L 646 1079 
C 646 646 646 368 813 187 
C 896 103 1056 -64 1517 -64 
C 2061 -64 2272 400 2323 536 
L 2330 536 
L 2330 -64 
L 3091 -13 
L 3091 154 
C 2714 154 2656 193 2656 503 
L 2656 2816 
L 1882 2745 
z
" transform="scale(0.015625)"/>
      <path id="CMR17-6c" d="M 979 4416 
L 218 4345 
L 218 4179 
C 595 4179 653 4141 653 3835 
L 653 439 
C 653 198 627 166 218 166 
L 218 0 
C 371 12 653 12 813 12 
C 979 12 1261 12 1414 0 
L 1414 166 
C 1005 166 979 191 979 439 
L 979 4416 
z
" transform="scale(0.015625)"/>
      <path id="CMR17-63" d="M 2234 2240 
C 2112 2240 1933 2240 1933 2015 
C 1933 1836 2080 1785 2163 1785 
C 2208 1785 2394 1804 2394 2028 
C 2394 2476 1958 2816 1466 2816 
C 787 2816 211 2201 211 1379 
C 211 521 813 -64 1466 -64 
C 2259 -64 2458 676 2458 747 
C 2458 773 2451 792 2406 792 
C 2362 792 2355 786 2330 702 
C 2163 180 1798 51 1523 51 
C 1114 51 621 431 621 1385 
C 621 2358 1094 2700 1472 2700 
C 1722 2700 2093 2582 2234 2240 
z
" transform="scale(0.015625)"/>
      <path id="CMR17-76" d="M 2502 2173 
C 2560 2315 2662 2572 3034 2585 
L 3034 2752 
C 2912 2745 2752 2739 2630 2739 
C 2496 2739 2285 2739 2157 2752 
L 2157 2585 
C 2317 2572 2406 2495 2406 2328 
C 2406 2270 2406 2257 2368 2167 
L 1664 379 
L 902 2308 
C 864 2392 864 2405 864 2431 
C 864 2585 1075 2585 1171 2585 
L 1171 2752 
C 1018 2739 736 2739 576 2739 
C 403 2739 205 2739 64 2752 
L 64 2585 
C 307 2585 442 2585 518 2386 
L 1446 44 
C 1485 -52 1491 -64 1549 -64 
C 1606 -64 1613 -52 1651 44 
L 2502 2173 
z
" transform="scale(0.015625)"/>
      <path id="CMR17-67" d="M 710 1165 
C 832 1068 1043 960 1299 960 
C 1805 960 2240 1359 2240 1895 
C 2240 2063 2189 2321 1997 2521 
C 2176 2713 2438 2777 2586 2777 
C 2611 2777 2650 2777 2682 2758 
C 2656 2751 2598 2726 2598 2623 
C 2598 2540 2656 2483 2739 2483 
C 2835 2483 2886 2547 2886 2630 
C 2886 2751 2790 2880 2586 2880 
C 2330 2880 2106 2758 1926 2591 
C 1734 2764 1504 2828 1299 2828 
C 794 2828 358 2431 358 1895 
C 358 1527 570 1294 634 1230 
C 442 1004 442 742 442 710 
C 442 544 506 300 723 166 
C 390 82 128 -184 128 -517 
C 128 -996 736 -1344 1466 -1344 
C 2170 -1344 2803 -1009 2803 -510 
C 2803 384 1856 384 1363 384 
C 1216 384 954 384 922 390 
C 723 422 589 601 589 825 
C 589 883 589 1024 710 1165 
z
M 1299 1068 
C 736 1068 736 1766 736 1895 
C 736 2024 736 2719 1299 2719 
C 1862 2719 1862 2024 1862 1895 
C 1862 1766 1862 1068 1299 1068 
z
M 1466 -1236 
C 826 -1236 384 -883 384 -517 
C 384 -311 493 -118 634 -11 
C 794 102 858 102 1293 102 
C 1818 102 2547 102 2547 -517 
C 2547 -883 2106 -1236 1466 -1236 
z
" transform="scale(0.015625)"/>
      <path id="CMR17-28" d="M 1958 -1562 
C 1958 -1556 1958 -1543 1939 -1524 
C 1645 -1223 858 -403 858 1596 
C 858 3595 1632 4408 1946 4729 
C 1946 4735 1958 4748 1958 4767 
C 1958 4787 1939 4800 1914 4800 
C 1843 4800 1299 4325 986 3620 
C 666 2909 576 2218 576 1603 
C 576 1141 621 360 1005 -467 
C 1312 -1133 1837 -1600 1914 -1600 
C 1946 -1600 1958 -1588 1958 -1562 
z
" transform="scale(0.015625)"/>
      <path id="CMR17-70" d="M 1408 -1114 
C 998 -1114 973 -1088 973 -834 
L 973 380 
C 1158 109 1427 -64 1766 -64 
C 2406 -64 3053 503 3053 1382 
C 3053 2196 2496 2816 1837 2816 
C 1453 2816 1139 2603 960 2345 
L 960 2816 
L 198 2745 
L 198 2577 
C 576 2577 634 2539 634 2228 
L 634 -834 
C 634 -1081 608 -1114 198 -1114 
L 198 -1280 
C 352 -1268 634 -1268 800 -1268 
C 966 -1268 1254 -1268 1408 -1280 
L 1408 -1114 
z
M 973 2015 
C 973 2106 973 2241 1222 2481 
C 1254 2506 1472 2700 1792 2700 
C 2259 2700 2643 2112 2643 1376 
C 2643 639 2234 38 1728 38 
C 1498 38 1248 148 1056 451 
C 973 594 973 632 973 736 
L 973 2015 
z
" transform="scale(0.015625)"/>
      <path id="CMR17-29" d="M 1683 1596 
C 1683 2057 1638 2839 1254 3665 
C 947 4332 422 4800 346 4800 
C 326 4800 301 4793 301 4761 
C 301 4748 307 4742 314 4729 
C 621 4408 1402 3595 1402 1603 
C 1402 -396 627 -1210 314 -1530 
C 307 -1543 301 -1549 301 -1562 
C 301 -1594 326 -1600 346 -1600 
C 416 -1600 960 -1127 1274 -422 
C 1594 289 1683 981 1683 1596 
z
" transform="scale(0.015625)"/>
     </defs>
     <use xlink:href="#CMR17-52" transform="scale(0.996264)"/>
     <use xlink:href="#CMR17-61" transform="translate(67.791102 0)scale(0.996264)"/>
     <use xlink:href="#CMR17-6e" transform="translate(113.481579 0)scale(0.996264)"/>
     <use xlink:href="#CMR17-64" transform="translate(164.376949 0)scale(0.996264)"/>
     <use xlink:href="#CMR17-6f" transform="translate(215.272319 0)scale(0.996264)"/>
     <use xlink:href="#CMR17-6d" transform="translate(260.962796 0)scale(0.996264)"/>
     <use xlink:href="#CMR17-6e" transform="translate(367.958352 0)scale(0.996264)"/>
     <use xlink:href="#CMR17-6f" transform="translate(418.853722 0)scale(0.996264)"/>
     <use xlink:href="#CMR17-69" transform="translate(464.544199 0)scale(0.996264)"/>
     <use xlink:href="#CMR17-73" transform="translate(489.415257 0)scale(0.996264)"/>
     <use xlink:href="#CMR17-65" transform="translate(525.216595 0)scale(0.996264)"/>
     <use xlink:href="#CMR17-3a" transform="translate(565.702255 0)scale(0.996264)"/>
     <use xlink:href="#CMR17-49" transform="translate(631.058974 0)scale(0.996264)"/>
     <use xlink:href="#CMR17-74" transform="translate(663.697384 0)scale(0.996264)"/>
     <use xlink:href="#CMR17-65" transform="translate(698.978151 0)scale(0.996264)"/>
     <use xlink:href="#CMR17-72" transform="translate(739.463812 0)scale(0.996264)"/>
     <use xlink:href="#CMR17-61" transform="translate(774.74458 0)scale(0.996264)"/>
     <use xlink:href="#CMR17-74" transform="translate(820.435057 0)scale(0.996264)"/>
     <use xlink:href="#CMR17-69" transform="translate(855.715825 0)scale(0.996264)"/>
     <use xlink:href="#CMR17-6f" transform="translate(880.586883 0)scale(0.996264)"/>
     <use xlink:href="#CMR17-6e" transform="translate(926.27736 0)scale(0.996264)"/>
     <use xlink:href="#CMR17-73" transform="translate(977.17273 0)scale(0.996264)"/>
     <use xlink:href="#CMR17-75" transform="translate(1043.050034 0)scale(0.996264)"/>
     <use xlink:href="#CMR17-6e" transform="translate(1093.945404 0)scale(0.996264)"/>
     <use xlink:href="#CMR17-74" transform="translate(1142.23832 0)scale(0.996264)"/>
     <use xlink:href="#CMR17-69" transform="translate(1177.519087 0)scale(0.996264)"/>
     <use xlink:href="#CMR17-6c" transform="translate(1202.390146 0)scale(0.996264)"/>
     <use xlink:href="#CMR17-63" transform="translate(1257.337171 0)scale(0.996264)"/>
     <use xlink:href="#CMR17-6f" transform="translate(1297.822831 0)scale(0.996264)"/>
     <use xlink:href="#CMR17-6e" transform="translate(1343.513308 0)scale(0.996264)"/>
     <use xlink:href="#CMR17-76" transform="translate(1391.806224 0)scale(0.996264)"/>
     <use xlink:href="#CMR17-65" transform="translate(1437.496686 0)scale(0.996264)"/>
     <use xlink:href="#CMR17-72" transform="translate(1477.982346 0)scale(0.996264)"/>
     <use xlink:href="#CMR17-67" transform="translate(1513.263114 0)scale(0.996264)"/>
     <use xlink:href="#CMR17-65" transform="translate(1558.953591 0)scale(0.996264)"/>
     <use xlink:href="#CMR17-6e" transform="translate(1599.439252 0)scale(0.996264)"/>
     <use xlink:href="#CMR17-63" transform="translate(1650.334622 0)scale(0.996264)"/>
     <use xlink:href="#CMR17-65" transform="translate(1690.820282 0)scale(0.996264)"/>
     <use xlink:href="#CMR17-28" transform="translate(1761.381909 0)scale(0.996264)"/>
     <use xlink:href="#CMR17-31" transform="translate(1796.662677 0)scale(0.996264)"/>
     <use xlink:href="#CMR17-30" transform="translate(1842.353154 0)scale(0.996264)"/>
     <use xlink:href="#CMR17-30" transform="translate(1888.043631 0)scale(0.996264)"/>
     <use xlink:href="#CMR17-30" transform="translate(1933.734108 0)scale(0.996264)"/>
     <use xlink:href="#CMR17-30" transform="translate(1979.424585 0)scale(0.996264)"/>
     <use xlink:href="#CMR17-73" transform="translate(2055.191029 0)scale(0.996264)"/>
     <use xlink:href="#CMR17-61" transform="translate(2090.992366 0)scale(0.996264)"/>
     <use xlink:href="#CMR17-6d" transform="translate(2136.682843 0)scale(0.996264)"/>
     <use xlink:href="#CMR17-70" transform="translate(2213.602433 0)scale(0.996264)"/>
     <use xlink:href="#CMR17-6c" transform="translate(2264.497803 0)scale(0.996264)"/>
     <use xlink:href="#CMR17-65" transform="translate(2289.368862 0)scale(0.996264)"/>
     <use xlink:href="#CMR17-73" transform="translate(2329.854522 0)scale(0.996264)"/>
     <use xlink:href="#CMR17-29" transform="translate(2365.65586 0)scale(0.996264)"/>
    </g>
    <!--  -->
    <g transform="translate(260.181818 37.2)scale(0.12 -0.12)"/>
   </g>
  </g>
  <g id="axes_2">
   <g id="patch_46">
    <path d="M 473.236364 315 
L 777.6 315 
L 777.6 43.2 
L 473.236364 43.2 
L 473.236364 315 
z
" style="fill: none"/>
   </g>
   <g id="patch_47">
    <path d="M 487.071074 315 
L 489.838017 315 
L 489.838017 314.254014 
L 487.071074 314.254014 
z
" clip-path="url(#p316320014e)" style="fill: #1f77b4"/>
   </g>
   <g id="patch_48">
    <path d="M 489.838017 315 
L 492.604959 315 
L 492.604959 315 
L 489.838017 315 
z
" clip-path="url(#p316320014e)" style="fill: #1f77b4"/>
   </g>
   <g id="patch_49">
    <path d="M 492.604959 315 
L 495.371901 315 
L 495.371901 314.254014 
L 492.604959 314.254014 
z
" clip-path="url(#p316320014e)" style="fill: #1f77b4"/>
   </g>
   <g id="patch_50">
    <path d="M 495.371901 315 
L 498.138843 315 
L 498.138843 315 
L 495.371901 315 
z
" clip-path="url(#p316320014e)" style="fill: #1f77b4"/>
   </g>
   <g id="patch_51">
    <path d="M 498.138843 315 
L 500.905785 315 
L 500.905785 312.762042 
L 498.138843 312.762042 
z
" clip-path="url(#p316320014e)" style="fill: #1f77b4"/>
   </g>
   <g id="patch_52">
    <path d="M 500.905785 315 
L 503.672727 315 
L 503.672727 314.254014 
L 500.905785 314.254014 
z
" clip-path="url(#p316320014e)" style="fill: #1f77b4"/>
   </g>
   <g id="patch_53">
    <path d="M 503.672727 315 
L 506.439669 315 
L 506.439669 312.762042 
L 503.672727 312.762042 
z
" clip-path="url(#p316320014e)" style="fill: #1f77b4"/>
   </g>
   <g id="patch_54">
    <path d="M 506.439669 315 
L 509.206612 315 
L 509.206612 314.254014 
L 506.439669 314.254014 
z
" clip-path="url(#p316320014e)" style="fill: #1f77b4"/>
   </g>
   <g id="patch_55">
    <path d="M 509.206612 315 
L 511.973554 315 
L 511.973554 312.016056 
L 509.206612 312.016056 
z
" clip-path="url(#p316320014e)" style="fill: #1f77b4"/>
   </g>
   <g id="patch_56">
    <path d="M 511.973554 315 
L 514.740496 315 
L 514.740496 312.016056 
L 511.973554 312.016056 
z
" clip-path="url(#p316320014e)" style="fill: #1f77b4"/>
   </g>
   <g id="patch_57">
    <path d="M 514.740496 315 
L 517.507438 315 
L 517.507438 311.27007 
L 514.740496 311.27007 
z
" clip-path="url(#p316320014e)" style="fill: #1f77b4"/>
   </g>
   <g id="patch_58">
    <path d="M 517.507438 315 
L 520.27438 315 
L 520.27438 308.286126 
L 517.507438 308.286126 
z
" clip-path="url(#p316320014e)" style="fill: #1f77b4"/>
   </g>
   <g id="patch_59">
    <path d="M 520.27438 315 
L 523.041322 315 
L 523.041322 304.556196 
L 520.27438 304.556196 
z
" clip-path="url(#p316320014e)" style="fill: #1f77b4"/>
   </g>
   <g id="patch_60">
    <path d="M 523.041322 315 
L 525.808264 315 
L 525.808264 303.81021 
L 523.041322 303.81021 
z
" clip-path="url(#p316320014e)" style="fill: #1f77b4"/>
   </g>
   <g id="patch_61">
    <path d="M 525.808264 315 
L 528.575207 315 
L 528.575207 306.794154 
L 525.808264 306.794154 
z
" clip-path="url(#p316320014e)" style="fill: #1f77b4"/>
   </g>
   <g id="patch_62">
    <path d="M 528.575207 315 
L 531.342149 315 
L 531.342149 300.826266 
L 528.575207 300.826266 
z
" clip-path="url(#p316320014e)" style="fill: #1f77b4"/>
   </g>
   <g id="patch_63">
    <path d="M 531.342149 315 
L 534.109091 315 
L 534.109091 302.318238 
L 531.342149 302.318238 
z
" clip-path="url(#p316320014e)" style="fill: #1f77b4"/>
   </g>
   <g id="patch_64">
    <path d="M 534.109091 315 
L 536.876033 315 
L 536.876033 293.366406 
L 534.109091 293.366406 
z
" clip-path="url(#p316320014e)" style="fill: #1f77b4"/>
   </g>
   <g id="patch_65">
    <path d="M 536.876033 315 
L 539.642975 315 
L 539.642975 297.842322 
L 536.876033 297.842322 
z
" clip-path="url(#p316320014e)" style="fill: #1f77b4"/>
   </g>
   <g id="patch_66">
    <path d="M 539.642975 315 
L 542.409917 315 
L 542.409917 291.128448 
L 539.642975 291.128448 
z
" clip-path="url(#p316320014e)" style="fill: #1f77b4"/>
   </g>
   <g id="patch_67">
    <path d="M 542.409917 315 
L 545.17686 315 
L 545.17686 282.176616 
L 542.409917 282.176616 
z
" clip-path="url(#p316320014e)" style="fill: #1f77b4"/>
   </g>
   <g id="patch_68">
    <path d="M 545.17686 315 
L 547.943802 315 
L 547.943802 279.192672 
L 545.17686 279.192672 
z
" clip-path="url(#p316320014e)" style="fill: #1f77b4"/>
   </g>
   <g id="patch_69">
    <path d="M 547.943802 315 
L 550.710744 315 
L 550.710744 259.797036 
L 547.943802 259.797036 
z
" clip-path="url(#p316320014e)" style="fill: #1f77b4"/>
   </g>
   <g id="patch_70">
    <path d="M 550.710744 315 
L 553.477686 315 
L 553.477686 259.05105 
L 550.710744 259.05105 
z
" clip-path="url(#p316320014e)" style="fill: #1f77b4"/>
   </g>
   <g id="patch_71">
    <path d="M 553.477686 315 
L 556.244628 315 
L 556.244628 257.559078 
L 553.477686 257.559078 
z
" clip-path="url(#p316320014e)" style="fill: #1f77b4"/>
   </g>
   <g id="patch_72">
    <path d="M 556.244628 315 
L 559.01157 315 
L 559.01157 238.163442 
L 556.244628 238.163442 
z
" clip-path="url(#p316320014e)" style="fill: #1f77b4"/>
   </g>
   <g id="patch_73">
    <path d="M 559.01157 315 
L 561.778512 315 
L 561.778512 241.147386 
L 559.01157 241.147386 
z
" clip-path="url(#p316320014e)" style="fill: #1f77b4"/>
   </g>
   <g id="patch_74">
    <path d="M 561.778512 315 
L 564.545455 315 
L 564.545455 226.227666 
L 561.778512 226.227666 
z
" clip-path="url(#p316320014e)" style="fill: #1f77b4"/>
   </g>
   <g id="patch_75">
    <path d="M 564.545455 315 
L 567.312397 315 
L 567.312397 228.465624 
L 564.545455 228.465624 
z
" clip-path="url(#p316320014e)" style="fill: #1f77b4"/>
   </g>
   <g id="patch_76">
    <path d="M 567.312397 315 
L 570.079339 315 
L 570.079339 197.134212 
L 567.312397 197.134212 
z
" clip-path="url(#p316320014e)" style="fill: #1f77b4"/>
   </g>
   <g id="patch_77">
    <path d="M 570.079339 315 
L 572.846281 315 
L 572.846281 190.420338 
L 570.079339 190.420338 
z
" clip-path="url(#p316320014e)" style="fill: #1f77b4"/>
   </g>
   <g id="patch_78">
    <path d="M 572.846281 315 
L 575.613223 315 
L 575.613223 172.516674 
L 572.846281 172.516674 
z
" clip-path="url(#p316320014e)" style="fill: #1f77b4"/>
   </g>
   <g id="patch_79">
    <path d="M 575.613223 315 
L 578.380165 315 
L 578.380165 188.18238 
L 575.613223 188.18238 
z
" clip-path="url(#p316320014e)" style="fill: #1f77b4"/>
   </g>
   <g id="patch_80">
    <path d="M 578.380165 315 
L 581.147107 315 
L 581.147107 168.786744 
L 578.380165 168.786744 
z
" clip-path="url(#p316320014e)" style="fill: #1f77b4"/>
   </g>
   <g id="patch_81">
    <path d="M 581.147107 315 
L 583.91405 315 
L 583.91405 150.883079 
L 581.147107 150.883079 
z
" clip-path="url(#p316320014e)" style="fill: #1f77b4"/>
   </g>
   <g id="patch_82">
    <path d="M 583.91405 315 
L 586.680992 315 
L 586.680992 153.121037 
L 583.91405 153.121037 
z
" clip-path="url(#p316320014e)" style="fill: #1f77b4"/>
   </g>
   <g id="patch_83">
    <path d="M 586.680992 315 
L 589.447934 315 
L 589.447934 116.567723 
L 586.680992 116.567723 
z
" clip-path="url(#p316320014e)" style="fill: #1f77b4"/>
   </g>
   <g id="patch_84">
    <path d="M 589.447934 315 
L 592.214876 315 
L 592.214876 110.599835 
L 589.447934 110.599835 
z
" clip-path="url(#p316320014e)" style="fill: #1f77b4"/>
   </g>
   <g id="patch_85">
    <path d="M 592.214876 315 
L 594.981818 315 
L 594.981818 135.217373 
L 592.214876 135.217373 
z
" clip-path="url(#p316320014e)" style="fill: #1f77b4"/>
   </g>
   <g id="patch_86">
    <path d="M 594.981818 315 
L 597.74876 315 
L 597.74876 110.599835 
L 594.981818 110.599835 
z
" clip-path="url(#p316320014e)" style="fill: #1f77b4"/>
   </g>
   <g id="patch_87">
    <path d="M 597.74876 315 
L 600.515702 315 
L 600.515702 88.966241 
L 597.74876 88.966241 
z
" clip-path="url(#p316320014e)" style="fill: #1f77b4"/>
   </g>
   <g id="patch_88">
    <path d="M 600.515702 315 
L 603.282645 315 
L 603.282645 65.094689 
L 600.515702 65.094689 
z
" clip-path="url(#p316320014e)" style="fill: #1f77b4"/>
   </g>
   <g id="patch_89">
    <path d="M 603.282645 315 
L 606.049587 315 
L 606.049587 80.014409 
L 603.282645 80.014409 
z
" clip-path="url(#p316320014e)" style="fill: #1f77b4"/>
   </g>
   <g id="patch_90">
    <path d="M 606.049587 315 
L 608.816529 315 
L 608.816529 70.316591 
L 606.049587 70.316591 
z
" clip-path="url(#p316320014e)" style="fill: #1f77b4"/>
   </g>
   <g id="patch_91">
    <path d="M 608.816529 315 
L 611.583471 315 
L 611.583471 85.982297 
L 608.816529 85.982297 
z
" clip-path="url(#p316320014e)" style="fill: #1f77b4"/>
   </g>
   <g id="patch_92">
    <path d="M 611.583471 315 
L 614.350413 315 
L 614.350413 56.142857 
L 611.583471 56.142857 
z
" clip-path="url(#p316320014e)" style="fill: #1f77b4"/>
   </g>
   <g id="patch_93">
    <path d="M 614.350413 315 
L 617.117355 315 
L 617.117355 77.776451 
L 614.350413 77.776451 
z
" clip-path="url(#p316320014e)" style="fill: #1f77b4"/>
   </g>
   <g id="patch_94">
    <path d="M 617.117355 315 
L 619.884298 315 
L 619.884298 81.506381 
L 617.117355 81.506381 
z
" clip-path="url(#p316320014e)" style="fill: #1f77b4"/>
   </g>
   <g id="patch_95">
    <path d="M 619.884298 315 
L 622.65124 315 
L 622.65124 67.332647 
L 619.884298 67.332647 
z
" clip-path="url(#p316320014e)" style="fill: #1f77b4"/>
   </g>
   <g id="patch_96">
    <path d="M 622.65124 315 
L 625.418182 315 
L 625.418182 74.792507 
L 622.65124 74.792507 
z
" clip-path="url(#p316320014e)" style="fill: #1f77b4"/>
   </g>
   <g id="patch_97">
    <path d="M 625.418182 315 
L 628.185124 315 
L 628.185124 79.268423 
L 625.418182 79.268423 
z
" clip-path="url(#p316320014e)" style="fill: #1f77b4"/>
   </g>
   <g id="patch_98">
    <path d="M 628.185124 315 
L 630.952066 315 
L 630.952066 102.393989 
L 628.185124 102.393989 
z
" clip-path="url(#p316320014e)" style="fill: #1f77b4"/>
   </g>
   <g id="patch_99">
    <path d="M 630.952066 315 
L 633.719008 315 
L 633.719008 123.281597 
L 630.952066 123.281597 
z
" clip-path="url(#p316320014e)" style="fill: #1f77b4"/>
   </g>
   <g id="patch_100">
    <path d="M 633.719008 315 
L 636.48595 315 
L 636.48595 127.757513 
L 633.719008 127.757513 
z
" clip-path="url(#p316320014e)" style="fill: #1f77b4"/>
   </g>
   <g id="patch_101">
    <path d="M 636.48595 315 
L 639.252893 315 
L 639.252893 140.439275 
L 636.48595 140.439275 
z
" clip-path="url(#p316320014e)" style="fill: #1f77b4"/>
   </g>
   <g id="patch_102">
    <path d="M 639.252893 315 
L 642.019835 315 
L 642.019835 134.471387 
L 639.252893 134.471387 
z
" clip-path="url(#p316320014e)" style="fill: #1f77b4"/>
   </g>
   <g id="patch_103">
    <path d="M 642.019835 315 
L 644.786777 315 
L 644.786777 181.468506 
L 642.019835 181.468506 
z
" clip-path="url(#p316320014e)" style="fill: #1f77b4"/>
   </g>
   <g id="patch_104">
    <path d="M 644.786777 315 
L 647.553719 315 
L 647.553719 179.976534 
L 644.786777 179.976534 
z
" clip-path="url(#p316320014e)" style="fill: #1f77b4"/>
   </g>
   <g id="patch_105">
    <path d="M 647.553719 315 
L 650.320661 315 
L 650.320661 182.960478 
L 647.553719 182.960478 
z
" clip-path="url(#p316320014e)" style="fill: #1f77b4"/>
   </g>
   <g id="patch_106">
    <path d="M 650.320661 315 
L 653.087603 315 
L 653.087603 186.690408 
L 650.320661 186.690408 
z
" clip-path="url(#p316320014e)" style="fill: #1f77b4"/>
   </g>
   <g id="patch_107">
    <path d="M 653.087603 315 
L 655.854545 315 
L 655.854545 205.340058 
L 653.087603 205.340058 
z
" clip-path="url(#p316320014e)" style="fill: #1f77b4"/>
   </g>
   <g id="patch_108">
    <path d="M 655.854545 315 
L 658.621488 315 
L 658.621488 222.497736 
L 655.854545 222.497736 
z
" clip-path="url(#p316320014e)" style="fill: #1f77b4"/>
   </g>
   <g id="patch_109">
    <path d="M 658.621488 315 
L 661.38843 315 
L 661.38843 221.005764 
L 658.621488 221.005764 
z
" clip-path="url(#p316320014e)" style="fill: #1f77b4"/>
   </g>
   <g id="patch_110">
    <path d="M 661.38843 315 
L 664.155372 315 
L 664.155372 229.957596 
L 661.38843 229.957596 
z
" clip-path="url(#p316320014e)" style="fill: #1f77b4"/>
   </g>
   <g id="patch_111">
    <path d="M 664.155372 315 
L 666.922314 315 
L 666.922314 249.353232 
L 664.155372 249.353232 
z
" clip-path="url(#p316320014e)" style="fill: #1f77b4"/>
   </g>
   <g id="patch_112">
    <path d="M 666.922314 315 
L 669.689256 315 
L 669.689256 265.764924 
L 666.922314 265.764924 
z
" clip-path="url(#p316320014e)" style="fill: #1f77b4"/>
   </g>
   <g id="patch_113">
    <path d="M 669.689256 315 
L 672.456198 315 
L 672.456198 253.083162 
L 669.689256 253.083162 
z
" clip-path="url(#p316320014e)" style="fill: #1f77b4"/>
   </g>
   <g id="patch_114">
    <path d="M 672.456198 315 
L 675.22314 315 
L 675.22314 262.034994 
L 672.456198 262.034994 
z
" clip-path="url(#p316320014e)" style="fill: #1f77b4"/>
   </g>
   <g id="patch_115">
    <path d="M 675.22314 315 
L 677.990083 315 
L 677.990083 274.716756 
L 675.22314 274.716756 
z
" clip-path="url(#p316320014e)" style="fill: #1f77b4"/>
   </g>
   <g id="patch_116">
    <path d="M 677.990083 315 
L 680.757025 315 
L 680.757025 283.668588 
L 677.990083 283.668588 
z
" clip-path="url(#p316320014e)" style="fill: #1f77b4"/>
   </g>
   <g id="patch_117">
    <path d="M 680.757025 315 
L 683.523967 315 
L 683.523967 282.176616 
L 680.757025 282.176616 
z
" clip-path="url(#p316320014e)" style="fill: #1f77b4"/>
   </g>
   <g id="patch_118">
    <path d="M 683.523967 315 
L 686.290909 315 
L 686.290909 284.414574 
L 683.523967 284.414574 
z
" clip-path="url(#p316320014e)" style="fill: #1f77b4"/>
   </g>
   <g id="patch_119">
    <path d="M 686.290909 315 
L 689.057851 315 
L 689.057851 291.128448 
L 686.290909 291.128448 
z
" clip-path="url(#p316320014e)" style="fill: #1f77b4"/>
   </g>
   <g id="patch_120">
    <path d="M 689.057851 315 
L 691.824793 315 
L 691.824793 295.604364 
L 689.057851 295.604364 
z
" clip-path="url(#p316320014e)" style="fill: #1f77b4"/>
   </g>
   <g id="patch_121">
    <path d="M 691.824793 315 
L 694.591736 315 
L 694.591736 300.08028 
L 691.824793 300.08028 
z
" clip-path="url(#p316320014e)" style="fill: #1f77b4"/>
   </g>
   <g id="patch_122">
    <path d="M 694.591736 315 
L 697.358678 315 
L 697.358678 305.302182 
L 694.591736 305.302182 
z
" clip-path="url(#p316320014e)" style="fill: #1f77b4"/>
   </g>
   <g id="patch_123">
    <path d="M 697.358678 315 
L 700.12562 315 
L 700.12562 306.794154 
L 697.358678 306.794154 
z
" clip-path="url(#p316320014e)" style="fill: #1f77b4"/>
   </g>
   <g id="patch_124">
    <path d="M 700.12562 315 
L 702.892562 315 
L 702.892562 304.556196 
L 700.12562 304.556196 
z
" clip-path="url(#p316320014e)" style="fill: #1f77b4"/>
   </g>
   <g id="patch_125">
    <path d="M 702.892562 315 
L 705.659504 315 
L 705.659504 305.302182 
L 702.892562 305.302182 
z
" clip-path="url(#p316320014e)" style="fill: #1f77b4"/>
   </g>
   <g id="patch_126">
    <path d="M 705.659504 315 
L 708.426446 315 
L 708.426446 309.032112 
L 705.659504 309.032112 
z
" clip-path="url(#p316320014e)" style="fill: #1f77b4"/>
   </g>
   <g id="patch_127">
    <path d="M 708.426446 315 
L 711.193388 315 
L 711.193388 312.016056 
L 708.426446 312.016056 
z
" clip-path="url(#p316320014e)" style="fill: #1f77b4"/>
   </g>
   <g id="patch_128">
    <path d="M 711.193388 315 
L 713.960331 315 
L 713.960331 310.524084 
L 711.193388 310.524084 
z
" clip-path="url(#p316320014e)" style="fill: #1f77b4"/>
   </g>
   <g id="patch_129">
    <path d="M 713.960331 315 
L 716.727273 315 
L 716.727273 311.27007 
L 713.960331 311.27007 
z
" clip-path="url(#p316320014e)" style="fill: #1f77b4"/>
   </g>
   <g id="patch_130">
    <path d="M 716.727273 315 
L 719.494215 315 
L 719.494215 314.254014 
L 716.727273 314.254014 
z
" clip-path="url(#p316320014e)" style="fill: #1f77b4"/>
   </g>
   <g id="patch_131">
    <path d="M 719.494215 315 
L 722.261157 315 
L 722.261157 310.524084 
L 719.494215 310.524084 
z
" clip-path="url(#p316320014e)" style="fill: #1f77b4"/>
   </g>
   <g id="patch_132">
    <path d="M 722.261157 315 
L 725.028099 315 
L 725.028099 314.254014 
L 722.261157 314.254014 
z
" clip-path="url(#p316320014e)" style="fill: #1f77b4"/>
   </g>
   <g id="patch_133">
    <path d="M 725.028099 315 
L 727.795041 315 
L 727.795041 313.508028 
L 725.028099 313.508028 
z
" clip-path="url(#p316320014e)" style="fill: #1f77b4"/>
   </g>
   <g id="patch_134">
    <path d="M 727.795041 315 
L 730.561983 315 
L 730.561983 314.254014 
L 727.795041 314.254014 
z
" clip-path="url(#p316320014e)" style="fill: #1f77b4"/>
   </g>
   <g id="patch_135">
    <path d="M 730.561983 315 
L 733.328926 315 
L 733.328926 314.254014 
L 730.561983 314.254014 
z
" clip-path="url(#p316320014e)" style="fill: #1f77b4"/>
   </g>
   <g id="patch_136">
    <path d="M 733.328926 315 
L 736.095868 315 
L 736.095868 315 
L 733.328926 315 
z
" clip-path="url(#p316320014e)" style="fill: #1f77b4"/>
   </g>
   <g id="patch_137">
    <path d="M 736.095868 315 
L 738.86281 315 
L 738.86281 315 
L 736.095868 315 
z
" clip-path="url(#p316320014e)" style="fill: #1f77b4"/>
   </g>
   <g id="patch_138">
    <path d="M 738.86281 315 
L 741.629752 315 
L 741.629752 315 
L 738.86281 315 
z
" clip-path="url(#p316320014e)" style="fill: #1f77b4"/>
   </g>
   <g id="patch_139">
    <path d="M 741.629752 315 
L 744.396694 315 
L 744.396694 315 
L 741.629752 315 
z
" clip-path="url(#p316320014e)" style="fill: #1f77b4"/>
   </g>
   <g id="patch_140">
    <path d="M 744.396694 315 
L 747.163636 315 
L 747.163636 315 
L 744.396694 315 
z
" clip-path="url(#p316320014e)" style="fill: #1f77b4"/>
   </g>
   <g id="patch_141">
    <path d="M 747.163636 315 
L 749.930579 315 
L 749.930579 315 
L 747.163636 315 
z
" clip-path="url(#p316320014e)" style="fill: #1f77b4"/>
   </g>
   <g id="patch_142">
    <path d="M 749.930579 315 
L 752.697521 315 
L 752.697521 315 
L 749.930579 315 
z
" clip-path="url(#p316320014e)" style="fill: #1f77b4"/>
   </g>
   <g id="patch_143">
    <path d="M 752.697521 315 
L 755.464463 315 
L 755.464463 315 
L 752.697521 315 
z
" clip-path="url(#p316320014e)" style="fill: #1f77b4"/>
   </g>
   <g id="patch_144">
    <path d="M 755.464463 315 
L 758.231405 315 
L 758.231405 315 
L 755.464463 315 
z
" clip-path="url(#p316320014e)" style="fill: #1f77b4"/>
   </g>
   <g id="patch_145">
    <path d="M 758.231405 315 
L 760.998347 315 
L 760.998347 315 
L 758.231405 315 
z
" clip-path="url(#p316320014e)" style="fill: #1f77b4"/>
   </g>
   <g id="patch_146">
    <path d="M 760.998347 315 
L 763.765289 315 
L 763.765289 314.254014 
L 760.998347 314.254014 
z
" clip-path="url(#p316320014e)" style="fill: #1f77b4"/>
   </g>
   <g id="matplotlib.axis_3">
    <g id="xtick_10">
     <g id="line2d_15">
      <g>
       <use xlink:href="#m072fc4b67d" x="477.364931" y="315" style="stroke: #000000; stroke-width: 0.8"/>
      </g>
     </g>
     <g id="text_16">
      <!-- $\mathdefault{0.044}$ -->
      <g transform="translate(466.018556 328.918498)scale(0.1 -0.1)">
       <defs>
        <path id="CMMI12-3a" d="M 1178 307 
C 1178 492 1024 620 870 620 
C 685 620 557 467 557 313 
C 557 128 710 0 864 0 
C 1050 0 1178 153 1178 307 
z
" transform="scale(0.015625)"/>
       </defs>
       <use xlink:href="#CMR17-30" transform="scale(0.996264)"/>
       <use xlink:href="#CMMI12-3a" transform="translate(45.690477 0)scale(0.996264)"/>
       <use xlink:href="#CMR17-30" transform="translate(72.787654 0)scale(0.996264)"/>
       <use xlink:href="#CMR17-34" transform="translate(118.478131 0)scale(0.996264)"/>
       <use xlink:href="#CMR17-34" transform="translate(164.168608 0)scale(0.996264)"/>
      </g>
     </g>
    </g>
    <g id="xtick_11">
     <g id="line2d_16">
      <g>
       <use xlink:href="#m072fc4b67d" x="524.514216" y="315" style="stroke: #000000; stroke-width: 0.8"/>
      </g>
     </g>
     <g id="text_17">
      <!-- $\mathdefault{0.046}$ -->
      <g transform="translate(513.167841 328.918498)scale(0.1 -0.1)">
       <use xlink:href="#CMR17-30" transform="scale(0.996264)"/>
       <use xlink:href="#CMMI12-3a" transform="translate(45.690477 0)scale(0.996264)"/>
       <use xlink:href="#CMR17-30" transform="translate(72.787654 0)scale(0.996264)"/>
       <use xlink:href="#CMR17-34" transform="translate(118.478131 0)scale(0.996264)"/>
       <use xlink:href="#CMR17-36" transform="translate(164.168608 0)scale(0.996264)"/>
      </g>
     </g>
    </g>
    <g id="xtick_12">
     <g id="line2d_17">
      <g>
       <use xlink:href="#m072fc4b67d" x="571.663501" y="315" style="stroke: #000000; stroke-width: 0.8"/>
      </g>
     </g>
     <g id="text_18">
      <!-- $\mathdefault{0.048}$ -->
      <g transform="translate(560.317126 328.918498)scale(0.1 -0.1)">
       <use xlink:href="#CMR17-30" transform="scale(0.996264)"/>
       <use xlink:href="#CMMI12-3a" transform="translate(45.690477 0)scale(0.996264)"/>
       <use xlink:href="#CMR17-30" transform="translate(72.787654 0)scale(0.996264)"/>
       <use xlink:href="#CMR17-34" transform="translate(118.478131 0)scale(0.996264)"/>
       <use xlink:href="#CMR17-38" transform="translate(164.168608 0)scale(0.996264)"/>
      </g>
     </g>
    </g>
    <g id="xtick_13">
     <g id="line2d_18">
      <g>
       <use xlink:href="#m072fc4b67d" x="618.812786" y="315" style="stroke: #000000; stroke-width: 0.8"/>
      </g>
     </g>
     <g id="text_19">
      <!-- $\mathdefault{0.050}$ -->
      <g transform="translate(607.466411 328.918498)scale(0.1 -0.1)">
       <use xlink:href="#CMR17-30" transform="scale(0.996264)"/>
       <use xlink:href="#CMMI12-3a" transform="translate(45.690477 0)scale(0.996264)"/>
       <use xlink:href="#CMR17-30" transform="translate(72.787654 0)scale(0.996264)"/>
       <use xlink:href="#CMR17-35" transform="translate(118.478131 0)scale(0.996264)"/>
       <use xlink:href="#CMR17-30" transform="translate(164.168608 0)scale(0.996264)"/>
      </g>
     </g>
    </g>
    <g id="xtick_14">
     <g id="line2d_19">
      <g>
       <use xlink:href="#m072fc4b67d" x="665.962071" y="315" style="stroke: #000000; stroke-width: 0.8"/>
      </g>
     </g>
     <g id="text_20">
      <!-- $\mathdefault{0.052}$ -->
      <g transform="translate(654.615696 328.918498)scale(0.1 -0.1)">
       <use xlink:href="#CMR17-30" transform="scale(0.996264)"/>
       <use xlink:href="#CMMI12-3a" transform="translate(45.690477 0)scale(0.996264)"/>
       <use xlink:href="#CMR17-30" transform="translate(72.787654 0)scale(0.996264)"/>
       <use xlink:href="#CMR17-35" transform="translate(118.478131 0)scale(0.996264)"/>
       <use xlink:href="#CMR17-32" transform="translate(164.168608 0)scale(0.996264)"/>
      </g>
     </g>
    </g>
    <g id="xtick_15">
     <g id="line2d_20">
      <g>
       <use xlink:href="#m072fc4b67d" x="713.111356" y="315" style="stroke: #000000; stroke-width: 0.8"/>
      </g>
     </g>
     <g id="text_21">
      <!-- $\mathdefault{0.054}$ -->
      <g transform="translate(701.764981 328.918498)scale(0.1 -0.1)">
       <use xlink:href="#CMR17-30" transform="scale(0.996264)"/>
       <use xlink:href="#CMMI12-3a" transform="translate(45.690477 0)scale(0.996264)"/>
       <use xlink:href="#CMR17-30" transform="translate(72.787654 0)scale(0.996264)"/>
       <use xlink:href="#CMR17-35" transform="translate(118.478131 0)scale(0.996264)"/>
       <use xlink:href="#CMR17-34" transform="translate(164.168608 0)scale(0.996264)"/>
      </g>
     </g>
    </g>
    <g id="xtick_16">
     <g id="line2d_21">
      <g>
       <use xlink:href="#m072fc4b67d" x="760.260641" y="315" style="stroke: #000000; stroke-width: 0.8"/>
      </g>
     </g>
     <g id="text_22">
      <!-- $\mathdefault{0.056}$ -->
      <g transform="translate(748.914266 328.918498)scale(0.1 -0.1)">
       <use xlink:href="#CMR17-30" transform="scale(0.996264)"/>
       <use xlink:href="#CMMI12-3a" transform="translate(45.690477 0)scale(0.996264)"/>
       <use xlink:href="#CMR17-30" transform="translate(72.787654 0)scale(0.996264)"/>
       <use xlink:href="#CMR17-35" transform="translate(118.478131 0)scale(0.996264)"/>
       <use xlink:href="#CMR17-36" transform="translate(164.168608 0)scale(0.996264)"/>
      </g>
     </g>
    </g>
   </g>
   <g id="matplotlib.axis_4">
    <g id="ytick_6">
     <g id="line2d_22">
      <g>
       <use xlink:href="#mfc759e1ce1" x="473.236364" y="315" style="stroke: #000000; stroke-width: 0.8"/>
      </g>
     </g>
     <g id="text_23">
      <!-- $\mathdefault{0}$ -->
      <g transform="translate(461.255028 318.459249)scale(0.1 -0.1)">
       <use xlink:href="#CMR17-30" transform="scale(0.996264)"/>
      </g>
     </g>
    </g>
    <g id="ytick_7">
     <g id="line2d_23">
      <g>
       <use xlink:href="#mfc759e1ce1" x="473.236364" y="277.7007" style="stroke: #000000; stroke-width: 0.8"/>
      </g>
     </g>
     <g id="text_24">
      <!-- $\mathdefault{50}$ -->
      <g transform="translate(456.273693 281.159949)scale(0.1 -0.1)">
       <use xlink:href="#CMR17-35" transform="scale(0.996264)"/>
       <use xlink:href="#CMR17-30" transform="translate(45.690477 0)scale(0.996264)"/>
      </g>
     </g>
    </g>
    <g id="ytick_8">
     <g id="line2d_24">
      <g>
       <use xlink:href="#mfc759e1ce1" x="473.236364" y="240.4014" style="stroke: #000000; stroke-width: 0.8"/>
      </g>
     </g>
     <g id="text_25">
      <!-- $\mathdefault{100}$ -->
      <g transform="translate(451.292358 243.860649)scale(0.1 -0.1)">
       <use xlink:href="#CMR17-31" transform="scale(0.996264)"/>
       <use xlink:href="#CMR17-30" transform="translate(45.690477 0)scale(0.996264)"/>
       <use xlink:href="#CMR17-30" transform="translate(91.380954 0)scale(0.996264)"/>
      </g>
     </g>
    </g>
    <g id="ytick_9">
     <g id="line2d_25">
      <g>
       <use xlink:href="#mfc759e1ce1" x="473.236364" y="203.1021" style="stroke: #000000; stroke-width: 0.8"/>
      </g>
     </g>
     <g id="text_26">
      <!-- $\mathdefault{150}$ -->
      <g transform="translate(451.292358 206.561349)scale(0.1 -0.1)">
       <use xlink:href="#CMR17-31" transform="scale(0.996264)"/>
       <use xlink:href="#CMR17-35" transform="translate(45.690477 0)scale(0.996264)"/>
       <use xlink:href="#CMR17-30" transform="translate(91.380954 0)scale(0.996264)"/>
      </g>
     </g>
    </g>
    <g id="ytick_10">
     <g id="line2d_26">
      <g>
       <use xlink:href="#mfc759e1ce1" x="473.236364" y="165.8028" style="stroke: #000000; stroke-width: 0.8"/>
      </g>
     </g>
     <g id="text_27">
      <!-- $\mathdefault{200}$ -->
      <g transform="translate(451.292358 169.262049)scale(0.1 -0.1)">
       <use xlink:href="#CMR17-32" transform="scale(0.996264)"/>
       <use xlink:href="#CMR17-30" transform="translate(45.690477 0)scale(0.996264)"/>
       <use xlink:href="#CMR17-30" transform="translate(91.380954 0)scale(0.996264)"/>
      </g>
     </g>
    </g>
    <g id="ytick_11">
     <g id="line2d_27">
      <g>
       <use xlink:href="#mfc759e1ce1" x="473.236364" y="128.503499" style="stroke: #000000; stroke-width: 0.8"/>
      </g>
     </g>
     <g id="text_28">
      <!-- $\mathdefault{250}$ -->
      <g transform="translate(451.292358 131.962749)scale(0.1 -0.1)">
       <use xlink:href="#CMR17-32" transform="scale(0.996264)"/>
       <use xlink:href="#CMR17-35" transform="translate(45.690477 0)scale(0.996264)"/>
       <use xlink:href="#CMR17-30" transform="translate(91.380954 0)scale(0.996264)"/>
      </g>
     </g>
    </g>
    <g id="ytick_12">
     <g id="line2d_28">
      <g>
       <use xlink:href="#mfc759e1ce1" x="473.236364" y="91.204199" style="stroke: #000000; stroke-width: 0.8"/>
      </g>
     </g>
     <g id="text_29">
      <!-- $\mathdefault{300}$ -->
      <g transform="translate(451.292358 94.663448)scale(0.1 -0.1)">
       <use xlink:href="#CMR17-33" transform="scale(0.996264)"/>
       <use xlink:href="#CMR17-30" transform="translate(45.690477 0)scale(0.996264)"/>
       <use xlink:href="#CMR17-30" transform="translate(91.380954 0)scale(0.996264)"/>
      </g>
     </g>
    </g>
    <g id="ytick_13">
     <g id="line2d_29">
      <g>
       <use xlink:href="#mfc759e1ce1" x="473.236364" y="53.904899" style="stroke: #000000; stroke-width: 0.8"/>
      </g>
     </g>
     <g id="text_30">
      <!-- $\mathdefault{350}$ -->
      <g transform="translate(451.292358 57.364148)scale(0.1 -0.1)">
       <use xlink:href="#CMR17-33" transform="scale(0.996264)"/>
       <use xlink:href="#CMR17-35" transform="translate(45.690477 0)scale(0.996264)"/>
       <use xlink:href="#CMR17-30" transform="translate(91.380954 0)scale(0.996264)"/>
      </g>
     </g>
    </g>
   </g>
   <g id="patch_147">
    <path d="M 473.236364 315 
L 473.236364 43.2 
" style="fill: none; stroke: #000000; stroke-width: 0.8; stroke-linejoin: miter; stroke-linecap: square"/>
   </g>
   <g id="patch_148">
    <path d="M 777.6 315 
L 777.6 43.2 
" style="fill: none; stroke: #000000; stroke-width: 0.8; stroke-linejoin: miter; stroke-linecap: square"/>
   </g>
   <g id="patch_149">
    <path d="M 473.236364 315 
L 777.6 315 
" style="fill: none; stroke: #000000; stroke-width: 0.8; stroke-linejoin: miter; stroke-linecap: square"/>
   </g>
   <g id="patch_150">
    <path d="M 473.236364 43.2 
L 777.6 43.2 
" style="fill: none; stroke: #000000; stroke-width: 0.8; stroke-linejoin: miter; stroke-linecap: square"/>
   </g>
   <g id="text_31">
    <!-- Random noise: MSE histogram (10000 samples) -->
    <g transform="translate(502.054296 24.248592)scale(0.12 -0.12)">
     <defs>
      <path id="CMR17-4d" d="M 1338 4249 
C 1299 4345 1293 4352 1158 4352 
L 339 4352 
L 339 4185 
C 781 4185 851 4185 851 3898 
L 851 624 
C 851 465 851 166 339 166 
L 339 0 
C 486 12 755 12 915 12 
C 1075 12 1344 12 1491 0 
L 1491 166 
C 979 166 979 465 979 624 
L 979 4159 
L 986 4159 
L 2490 102 
C 2515 38 2528 0 2579 0 
C 2630 0 2643 38 2669 102 
L 4186 4191 
L 4192 4191 
L 4192 453 
C 4192 166 4122 166 3680 166 
L 3680 0 
C 3853 12 4198 12 4384 12 
C 4570 12 4922 12 5094 0 
L 5094 166 
C 4653 166 4582 166 4582 453 
L 4582 3898 
C 4582 4185 4653 4185 5094 4185 
L 5094 4352 
L 4282 4352 
C 4147 4352 4141 4345 4102 4249 
L 2720 516 
L 1338 4249 
z
" transform="scale(0.015625)"/>
      <path id="CMR17-53" d="M 2803 4351 
C 2803 4467 2797 4473 2758 4473 
C 2720 4473 2707 4447 2682 4390 
L 2490 3965 
C 2246 4320 1875 4480 1472 4480 
C 819 4480 294 3958 294 3301 
C 294 3101 339 2817 557 2546 
C 794 2250 1018 2198 1530 2063 
C 1722 2011 2042 1927 2106 1901 
C 2470 1747 2662 1360 2662 999 
C 2662 534 2336 38 1779 38 
C 1094 38 454 425 410 1328 
C 403 1431 397 1437 352 1437 
C 301 1437 294 1431 294 1302 
L 294 0 
C 294 -116 301 -122 339 -122 
C 384 -122 397 -90 486 109 
C 493 128 493 141 614 386 
C 934 -39 1472 -128 1779 -128 
C 2477 -128 2970 457 2970 1141 
C 2970 1476 2848 1734 2778 1850 
C 2509 2263 2221 2340 1914 2417 
C 1869 2437 1856 2437 1498 2527 
C 1152 2617 1005 2662 845 2836 
C 666 3036 602 3243 602 3449 
C 602 3868 934 4326 1478 4326 
C 2157 4326 2579 3842 2675 3036 
C 2694 2920 2701 2914 2746 2914 
C 2803 2914 2803 2933 2803 3043 
L 2803 4351 
z
" transform="scale(0.015625)"/>
      <path id="CMR17-45" d="M 3885 1614 
L 3770 1614 
C 3629 676 3546 166 2419 166 
L 1530 166 
C 1274 166 1261 198 1261 415 
L 1261 2176 
L 1862 2176 
C 2464 2176 2522 1959 2522 1429 
L 2637 1429 
L 2637 3086 
L 2522 3086 
C 2522 2558 2464 2342 1862 2342 
L 1261 2342 
L 1261 3924 
C 1261 4141 1274 4172 1530 4172 
L 2406 4172 
C 3398 4172 3514 3778 3603 2933 
L 3718 2933 
L 3565 4339 
L 326 4339 
L 326 4172 
C 768 4172 838 4172 838 3886 
L 838 453 
C 838 166 768 166 326 166 
L 326 0 
L 3654 0 
L 3885 1614 
z
" transform="scale(0.015625)"/>
      <path id="CMR17-68" d="M 2656 1954 
C 2656 2282 2592 2816 1837 2816 
C 1312 2816 1056 2392 979 2179 
L 973 2179 
L 973 4416 
L 211 4345 
L 211 4179 
C 589 4179 646 4141 646 3843 
L 646 443 
C 646 198 621 166 211 166 
L 211 0 
C 365 12 646 12 813 12 
C 979 12 1267 12 1421 0 
L 1421 166 
C 1011 166 986 192 986 443 
L 986 1678 
C 986 2269 1344 2713 1792 2713 
C 2266 2713 2317 2289 2317 1980 
L 2317 443 
C 2317 198 2291 166 1882 166 
L 1882 0 
C 2035 12 2317 12 2483 12 
C 2650 12 2938 12 3091 0 
L 3091 166 
C 2682 166 2656 192 2656 443 
L 2656 1954 
z
" transform="scale(0.015625)"/>
     </defs>
     <use xlink:href="#CMR17-52" transform="scale(0.996264)"/>
     <use xlink:href="#CMR17-61" transform="translate(67.791102 0)scale(0.996264)"/>
     <use xlink:href="#CMR17-6e" transform="translate(113.481579 0)scale(0.996264)"/>
     <use xlink:href="#CMR17-64" transform="translate(164.376949 0)scale(0.996264)"/>
     <use xlink:href="#CMR17-6f" transform="translate(215.272319 0)scale(0.996264)"/>
     <use xlink:href="#CMR17-6d" transform="translate(260.962796 0)scale(0.996264)"/>
     <use xlink:href="#CMR17-6e" transform="translate(367.958352 0)scale(0.996264)"/>
     <use xlink:href="#CMR17-6f" transform="translate(418.853722 0)scale(0.996264)"/>
     <use xlink:href="#CMR17-69" transform="translate(464.544199 0)scale(0.996264)"/>
     <use xlink:href="#CMR17-73" transform="translate(489.415257 0)scale(0.996264)"/>
     <use xlink:href="#CMR17-65" transform="translate(525.216595 0)scale(0.996264)"/>
     <use xlink:href="#CMR17-3a" transform="translate(565.702255 0)scale(0.996264)"/>
     <use xlink:href="#CMR17-4d" transform="translate(631.058974 0)scale(0.996264)"/>
     <use xlink:href="#CMR17-53" transform="translate(715.745915 0)scale(0.996264)"/>
     <use xlink:href="#CMR17-45" transform="translate(766.641285 0)scale(0.996264)"/>
     <use xlink:href="#CMR17-68" transform="translate(859.303552 0)scale(0.996264)"/>
     <use xlink:href="#CMR17-69" transform="translate(910.198921 0)scale(0.996264)"/>
     <use xlink:href="#CMR17-73" transform="translate(935.06998 0)scale(0.996264)"/>
     <use xlink:href="#CMR17-74" transform="translate(970.871318 0)scale(0.996264)"/>
     <use xlink:href="#CMR17-6f" transform="translate(1006.152085 0)scale(0.996264)"/>
     <use xlink:href="#CMR17-67" transform="translate(1051.842562 0)scale(0.996264)"/>
     <use xlink:href="#CMR17-72" transform="translate(1097.53304 0)scale(0.996264)"/>
     <use xlink:href="#CMR17-61" transform="translate(1132.813807 0)scale(0.996264)"/>
     <use xlink:href="#CMR17-6d" transform="translate(1178.504284 0)scale(0.996264)"/>
     <use xlink:href="#CMR17-28" transform="translate(1285.499841 0)scale(0.996264)"/>
     <use xlink:href="#CMR17-31" transform="translate(1320.780608 0)scale(0.996264)"/>
     <use xlink:href="#CMR17-30" transform="translate(1366.471086 0)scale(0.996264)"/>
     <use xlink:href="#CMR17-30" transform="translate(1412.161563 0)scale(0.996264)"/>
     <use xlink:href="#CMR17-30" transform="translate(1457.85204 0)scale(0.996264)"/>
     <use xlink:href="#CMR17-30" transform="translate(1503.542517 0)scale(0.996264)"/>
     <use xlink:href="#CMR17-73" transform="translate(1579.30896 0)scale(0.996264)"/>
     <use xlink:href="#CMR17-61" transform="translate(1615.110298 0)scale(0.996264)"/>
     <use xlink:href="#CMR17-6d" transform="translate(1660.800775 0)scale(0.996264)"/>
     <use xlink:href="#CMR17-70" transform="translate(1737.720365 0)scale(0.996264)"/>
     <use xlink:href="#CMR17-6c" transform="translate(1788.615735 0)scale(0.996264)"/>
     <use xlink:href="#CMR17-65" transform="translate(1813.486793 0)scale(0.996264)"/>
     <use xlink:href="#CMR17-73" transform="translate(1853.972454 0)scale(0.996264)"/>
     <use xlink:href="#CMR17-29" transform="translate(1889.773791 0)scale(0.996264)"/>
    </g>
    <!--  -->
    <g transform="translate(625.418182 37.2)scale(0.12 -0.12)"/>
   </g>
  </g>
 </g>
 <defs>
  <clipPath id="p45c7aee635">
   <rect x="108" y="43.2" width="304.363636" height="271.8"/>
  </clipPath>
  <clipPath id="p316320014e">
   <rect x="473.236364" y="43.2" width="304.363636" height="271.8"/>
  </clipPath>
 </defs>
</svg>
